<svg width="462" height="242" viewBox="0 0 462 242" fill="none" xmlns="http://www.w3.org/2000/svg">
<g clip-path="url(#clip0_334_777)">
<path fill-rule="evenodd" clip-rule="evenodd" d="M169.663 179.846H186.677L192.204 166.769H159.353C162.302 171.375 165.738 175.758 169.663 179.846ZM152.514 153.692H197.731L203.259 140.615H148.282C149.331 145.058 150.742 149.433 152.514 153.692ZM146.25 127.538H208.786L214.313 114.462H146.25C145.917 118.814 145.917 123.186 146.25 127.538ZM148.282 101.385H219.84L225.368 88.3077H152.514C150.742 92.5674 149.331 96.942 148.282 101.385ZM159.353 75.2308H230.895L236.422 62.1539H169.663C165.738 66.2416 162.302 70.6251 159.353 75.2308ZM185.665 49.077H241.949L246.85 37.4825C226.073 33.5588 204.116 37.4237 185.665 49.077ZM292.337 62.1539H277.858L272.339 75.2308H302.647C299.698 70.6251 296.262 66.2416 292.337 62.1539ZM309.486 88.3077H266.821L261.302 101.385H313.718C312.669 96.942 311.258 92.5674 309.486 88.3077ZM315.75 114.462H255.783L250.264 127.538H315.75C316.083 123.186 316.083 118.814 315.75 114.462ZM313.718 140.615H244.745L239.226 153.692H309.486C311.258 149.433 312.669 145.058 313.718 140.615ZM302.647 166.769H233.708L228.189 179.846H292.337C296.262 175.758 299.698 171.375 302.647 166.769ZM276.334 192.923H222.67L217.597 204.943C237.642 208.126 258.607 204.12 276.334 192.923Z" fill="#3366FF"/>
<path d="M263.693 62.1538H250.616L200.923 179.846H214L263.693 62.1538Z" fill="#101840"/>
</g>
<path d="M9.58807 168.432V144.213L70.3125 48.5455H91.1932V82.0682H78.8352L40.554 142.651V143.787H126.847V168.432H9.58807ZM79.4034 194V161.045L79.9716 150.321V48.5455H108.807V194H79.4034Z" fill="#101840"/>
<path d="M335.588 168.432V144.213L396.312 48.5455H417.193V82.0682H404.835L366.554 142.651V143.787H452.847V168.432H335.588ZM405.403 194V161.045L405.972 150.321V48.5455H434.807V194H405.403Z" fill="#101840"/>
<defs>
<clipPath id="clip0_334_777">
<rect width="170" height="170" fill="white" transform="translate(146 36)"/>
</clipPath>
</defs>
</svg>
