<svg width="233" height="65" viewBox="0 0 233 65" fill="none" xmlns="http://www.w3.org/2000/svg">
<g clip-path="url(#clip0_109_807)">
<path fill-rule="evenodd" clip-rule="evenodd" d="M8.76935 55H15.0743L17.1227 50H4.9486C6.04125 51.761 7.31483 53.4371 8.76935 55ZM2.41413 45H19.171L21.2194 40H0.845731C1.2345 41.6987 1.7573 43.3713 2.41413 45ZM0.0927621 35H23.2677L25.316 30H0.0927596C-0.0309207 31.664 -0.0309199 33.336 0.0927621 35ZM0.845723 25H27.3644L29.4127 20H2.41412C1.75729 21.6287 1.23449 23.3014 0.845723 25ZM4.94858 15H31.461L33.5094 10H8.76932C7.3148 11.563 6.04122 13.239 4.94858 15ZM14.6995 5.00002H35.5577L37.3738 0.566832C29.6742 -0.933389 21.537 0.544341 14.6995 5.00002ZM54.2307 10H48.8651L46.8199 15H58.0514C56.9588 13.239 55.6852 11.563 54.2307 10ZM60.5859 20H44.7747L42.7295 25H62.1543C61.7655 23.3014 61.2427 21.6287 60.5859 20ZM62.9072 30H40.6843L38.639 35H62.9072C63.0309 33.336 63.0309 31.664 62.9072 30ZM62.1543 40H36.5938L34.5486 45H60.5859C61.2427 43.3713 61.7655 41.6987 62.1543 40ZM58.0514 50H32.5034L30.4582 55H54.2307C55.6852 53.4371 56.9588 51.761 58.0514 50ZM48.3004 60H28.413L26.5331 64.5958C33.9614 65.813 41.7308 64.2811 48.3004 60Z" fill="#3366FF"/>
<path d="M43.6154 10H38.7693L20.3539 55H25.2L43.6154 10Z" fill="black"/>
</g>
<path d="M99.9141 28.5945H102.56C102.48 25.6825 99.9052 23.5696 96.212 23.5696C92.5632 23.5696 89.7667 25.6559 89.7667 28.7898C89.7667 31.32 91.5778 32.8026 94.4986 33.5927L96.647 34.1786C98.5913 34.6935 100.092 35.3327 100.092 36.9485C100.092 38.7241 98.396 39.896 96.0611 39.896C93.9482 39.896 92.1903 38.9549 92.0305 36.9751H89.2784C89.456 40.2688 92.0039 42.3018 96.0788 42.3018C100.349 42.3018 102.808 40.0558 102.808 36.9751C102.808 33.6992 99.8874 32.4297 97.5792 31.8615L95.8036 31.3999C94.3832 31.0359 92.4922 30.37 92.5011 28.63C92.5011 27.0852 93.9126 25.94 96.1499 25.94C98.2362 25.94 99.7188 26.9165 99.9141 28.5945ZM108.528 23.8182H105.873V42H108.528V23.8182ZM116.067 42.3018C118.322 42.3018 119.592 41.1566 120.098 40.1357H120.204V42H122.797V32.9446C122.797 28.9762 119.672 28.1861 117.506 28.1861C115.037 28.1861 112.765 29.1804 111.877 31.6662L114.372 32.2344C114.762 31.2667 115.757 30.3345 117.541 30.3345C119.254 30.3345 120.133 31.2312 120.133 32.7759V32.8381C120.133 33.8058 119.139 33.788 116.689 34.0721C114.105 34.3739 111.46 35.0487 111.46 38.147C111.46 40.8281 113.475 42.3018 116.067 42.3018ZM116.644 40.1712C115.144 40.1712 114.061 39.4964 114.061 38.1825C114.061 36.7621 115.322 36.256 116.857 36.0518C117.719 35.9364 119.76 35.7056 120.142 35.3239V37.0817C120.142 38.6974 118.855 40.1712 116.644 40.1712ZM136.551 31.6928C136 29.571 134.34 28.1861 131.393 28.1861C128.312 28.1861 126.128 29.8107 126.128 32.2255C126.128 34.1609 127.3 35.4482 129.857 36.0163L132.165 36.5224C133.479 36.8153 134.092 37.4013 134.092 38.2536C134.092 39.31 132.964 40.1357 131.224 40.1357C129.635 40.1357 128.614 39.4521 128.294 38.1115L125.729 38.5021C126.172 40.9169 128.179 42.2752 131.242 42.2752C134.535 42.2752 136.817 40.5263 136.817 38.0582C136.817 36.1317 135.592 34.9421 133.088 34.3651L130.922 33.8679C129.422 33.5128 128.774 33.0067 128.783 32.0835C128.774 31.0359 129.91 30.2901 131.419 30.2901C133.071 30.2901 133.834 31.2045 134.145 32.119L136.551 31.6928ZM142.39 33.9034C142.39 31.7283 143.766 30.4854 145.657 30.4854C147.486 30.4854 148.578 31.6484 148.578 33.646V42H151.232V33.3263C151.232 29.9261 149.368 28.1861 146.563 28.1861C144.441 28.1861 143.162 29.1094 142.523 30.5831H142.355V23.8182H139.736V42H142.39V33.9034ZM165.164 42H167.934L171.76 28.3814H171.902L175.729 42H178.49L183.541 23.8182H180.647L177.114 37.9073H176.945L173.261 23.8182H170.402L166.718 37.8984H166.549L163.007 23.8182H160.121L165.164 42ZM184.975 42H187.629V33.6726C187.629 31.8881 189.005 30.6009 190.888 30.6009C191.438 30.6009 192.059 30.6985 192.272 30.7607V28.2216C192.006 28.1861 191.482 28.1594 191.145 28.1594C189.547 28.1594 188.18 29.065 187.683 30.5298H187.541V28.3636H184.975V42ZM194.57 42H197.224V28.3636H194.57V42ZM195.91 26.2596C196.825 26.2596 197.588 25.5494 197.588 24.6793C197.588 23.8093 196.825 23.0902 195.91 23.0902C194.987 23.0902 194.232 23.8093 194.232 24.6793C194.232 25.5494 194.987 26.2596 195.91 26.2596ZM207.161 28.3636H204.364V25.0966H201.71V28.3636H199.712V30.4943H201.71V38.5465C201.701 41.0234 203.592 42.2219 205.687 42.1776C206.53 42.1687 207.098 42.0089 207.409 41.8935L206.93 39.7006C206.752 39.7362 206.424 39.8161 205.998 39.8161C205.136 39.8161 204.364 39.532 204.364 37.9961V30.4943H207.161V28.3636ZM215.828 42.2752C218.802 42.2752 220.906 40.8104 221.509 38.5909L218.997 38.1381C218.518 39.4254 217.363 40.0824 215.854 40.0824C213.581 40.0824 212.055 38.6087 211.983 35.9808H221.678V35.0398C221.678 30.1126 218.731 28.1861 215.641 28.1861C211.841 28.1861 209.338 31.0803 209.338 35.2706C209.338 39.5053 211.806 42.2752 215.828 42.2752ZM211.992 33.9922C212.099 32.0568 213.502 30.3789 215.659 30.3789C217.719 30.3789 219.068 31.9059 219.077 33.9922H211.992ZM224.623 42H227.278V33.6726C227.278 31.8881 228.654 30.6009 230.536 30.6009C231.086 30.6009 231.708 30.6985 231.921 30.7607V28.2216C231.655 28.1861 231.131 28.1594 230.793 28.1594C229.195 28.1594 227.828 29.065 227.331 30.5298H227.189V28.3636H224.623V42Z" fill="black"/>
<defs>
<clipPath id="clip0_109_807">
<rect width="63" height="65" fill="white"/>
</clipPath>
</defs>
</svg>
