<svg width="242" height="65" viewBox="0 0 242 65" fill="none" xmlns="http://www.w3.org/2000/svg">
<g clip-path="url(#clip0_1110_1109)">
<path fill-rule="evenodd" clip-rule="evenodd" d="M9.04774 55H15.5529L17.6663 50H5.1057C6.23303 51.761 7.54704 53.4371 9.04774 55ZM2.49077 45H19.7796L21.893 40H0.87258C1.27369 41.6987 1.81309 43.3713 2.49077 45ZM0.0957069 35H24.0063L26.1197 30H0.0957044C-0.0319023 31.664 -0.0319015 33.336 0.0957069 35ZM0.872572 25H28.2331L30.3464 20H2.49075C1.81307 21.6287 1.27368 23.3014 0.872572 25ZM5.10568 15H32.4598L34.5732 10H9.04771C7.54701 11.563 6.23301 13.239 5.10568 15ZM15.1662 5.00002H36.6865L38.5603 0.566832C30.6163 -0.933389 22.2207 0.544341 15.1662 5.00002ZM55.9523 10H50.4164L48.3063 15H59.8943C58.767 13.239 57.453 11.563 55.9523 10ZM62.5092 20H46.1961L44.086 25H64.1274C63.7263 23.3014 63.1869 21.6287 62.5092 20ZM64.9043 30H41.9758L39.8657 35H64.9043C65.0319 33.336 65.0319 31.664 64.9043 30ZM64.1274 40H37.7555L35.6454 45H62.5092C63.1869 43.3713 63.7263 41.6987 64.1274 40ZM59.8943 50H33.5353L31.4251 55H55.9523C57.453 53.4371 58.767 51.761 59.8943 50ZM49.8338 60H29.315L27.3754 64.5958C35.0395 65.813 43.0556 64.2811 49.8338 60Z" fill="#3366FF"/>
<path d="M45 10H40L21 55H26L45 10Z" fill="black"/>
</g>
<path d="M103.344 29.9858C103.238 29.0445 102.8 28.3153 102.031 27.7983C101.262 27.2746 100.295 27.0128 99.1278 27.0128C98.2926 27.0128 97.5701 27.1454 96.9602 27.4105C96.3504 27.669 95.8764 28.027 95.5384 28.4844C95.2069 28.9351 95.0412 29.4489 95.0412 30.0256C95.0412 30.5095 95.1539 30.9271 95.3793 31.2784C95.6113 31.6297 95.9129 31.9247 96.2841 32.1634C96.6619 32.3954 97.0663 32.5909 97.4972 32.75C97.928 32.9025 98.3423 33.0284 98.7401 33.1278L100.729 33.6449C101.378 33.804 102.045 34.0194 102.727 34.2912C103.41 34.563 104.043 34.9209 104.626 35.3651C105.21 35.8092 105.68 36.3594 106.038 37.0156C106.403 37.6719 106.585 38.4574 106.585 39.3722C106.585 40.5256 106.287 41.5497 105.69 42.4446C105.1 43.3395 104.242 44.0455 103.115 44.5625C101.995 45.0795 100.639 45.3381 99.0483 45.3381C97.5237 45.3381 96.2045 45.0961 95.0909 44.6122C93.9773 44.1283 93.1056 43.4422 92.4759 42.554C91.8461 41.6591 91.4981 40.5985 91.4318 39.3722H94.5142C94.5739 40.108 94.8125 40.7211 95.2301 41.2116C95.6544 41.6955 96.1946 42.0568 96.8509 42.2955C97.5137 42.5275 98.2396 42.6435 99.0284 42.6435C99.8968 42.6435 100.669 42.5076 101.345 42.2358C102.028 41.9574 102.565 41.5729 102.956 41.0824C103.347 40.5852 103.543 40.0052 103.543 39.3423C103.543 38.7391 103.37 38.2453 103.026 37.8608C102.688 37.4763 102.227 37.1581 101.643 36.9062C101.067 36.6544 100.414 36.4323 99.6847 36.2401L97.2784 35.5838C95.6477 35.1397 94.3551 34.4867 93.4006 33.625C92.4527 32.7633 91.9787 31.6231 91.9787 30.2045C91.9787 29.0312 92.2969 28.0071 92.9332 27.1321C93.5696 26.2571 94.4313 25.5777 95.5185 25.0938C96.6056 24.6032 97.8319 24.358 99.1974 24.358C100.576 24.358 101.793 24.5999 102.847 25.0838C103.907 25.5677 104.742 26.2339 105.352 27.0824C105.962 27.9242 106.28 28.892 106.307 29.9858H103.344ZM112.991 24.6364V45H110.018V24.6364H112.991ZM121.435 45.3381C120.468 45.3381 119.593 45.1591 118.81 44.8011C118.028 44.4366 117.408 43.9096 116.951 43.2202C116.5 42.5308 116.275 41.6856 116.275 40.6847C116.275 39.8229 116.441 39.1136 116.772 38.5568C117.103 38 117.551 37.5592 118.114 37.2344C118.678 36.9096 119.308 36.6643 120.004 36.4986C120.7 36.3329 121.409 36.2069 122.131 36.1207C123.046 36.0147 123.789 35.9285 124.359 35.8622C124.929 35.7893 125.343 35.6733 125.602 35.5142C125.86 35.3551 125.989 35.0966 125.989 34.7386V34.669C125.989 33.8007 125.744 33.1278 125.254 32.6506C124.77 32.1733 124.047 31.9347 123.086 31.9347C122.085 31.9347 121.296 32.1567 120.719 32.6009C120.149 33.0384 119.755 33.5256 119.536 34.0625L116.742 33.4261C117.074 32.4981 117.558 31.7491 118.194 31.179C118.837 30.6023 119.576 30.1847 120.411 29.9261C121.246 29.661 122.125 29.5284 123.046 29.5284C123.656 29.5284 124.302 29.6013 124.985 29.7472C125.674 29.8864 126.317 30.1449 126.914 30.5227C127.517 30.9006 128.011 31.4408 128.396 32.1435C128.78 32.8395 128.972 33.7443 128.972 34.858V45H126.069V42.9119H125.95C125.757 43.2964 125.469 43.6742 125.085 44.0455C124.7 44.4167 124.206 44.7249 123.603 44.9702C123 45.2154 122.277 45.3381 121.435 45.3381ZM122.082 42.9517C122.904 42.9517 123.606 42.7893 124.19 42.4645C124.78 42.1397 125.227 41.7154 125.532 41.1918C125.844 40.6615 125.999 40.0947 125.999 39.4915V37.5227C125.893 37.6288 125.688 37.7282 125.383 37.821C125.085 37.9072 124.743 37.9834 124.359 38.0497C123.974 38.1094 123.6 38.1657 123.235 38.2188C122.871 38.2652 122.566 38.3049 122.32 38.3381C121.744 38.411 121.217 38.5336 120.739 38.706C120.269 38.8783 119.891 39.1269 119.606 39.4517C119.327 39.7699 119.188 40.1941 119.188 40.7244C119.188 41.4602 119.46 42.017 120.004 42.3949C120.547 42.7661 121.24 42.9517 122.082 42.9517ZM144.377 33.456L141.682 33.9332C141.569 33.5885 141.391 33.2604 141.145 32.9489C140.907 32.6373 140.582 32.3821 140.171 32.1832C139.76 31.9844 139.246 31.8849 138.63 31.8849C137.788 31.8849 137.085 32.0739 136.522 32.4517C135.958 32.8229 135.676 33.3035 135.676 33.8935C135.676 34.4039 135.865 34.8149 136.243 35.1264C136.621 35.438 137.231 35.6932 138.073 35.892L140.499 36.4489C141.904 36.7737 142.952 37.2741 143.641 37.9503C144.33 38.6264 144.675 39.5047 144.675 40.5852C144.675 41.5 144.41 42.3153 143.88 43.0312C143.356 43.7405 142.623 44.2973 141.682 44.7017C140.748 45.1061 139.664 45.3082 138.431 45.3082C136.721 45.3082 135.325 44.9437 134.245 44.2145C133.164 43.4787 132.501 42.4347 132.256 41.0824L135.13 40.6449C135.309 41.3939 135.676 41.9607 136.233 42.3452C136.79 42.723 137.516 42.9119 138.411 42.9119C139.385 42.9119 140.164 42.7098 140.748 42.3054C141.331 41.8944 141.623 41.3939 141.623 40.804C141.623 40.3267 141.444 39.9257 141.086 39.6009C140.734 39.276 140.194 39.0308 139.465 38.8651L136.88 38.2983C135.454 37.9735 134.4 37.4564 133.718 36.7472C133.042 36.0379 132.703 35.1397 132.703 34.0526C132.703 33.151 132.955 32.3622 133.459 31.6861C133.963 31.0099 134.659 30.483 135.547 30.1051C136.435 29.7206 137.453 29.5284 138.6 29.5284C140.25 29.5284 141.55 29.8864 142.498 30.6023C143.445 31.3116 144.072 32.2628 144.377 33.456ZM150.917 35.9318V45H147.944V24.6364H150.877V32.2131H151.066C151.424 31.3911 151.971 30.7382 152.707 30.2543C153.442 29.7704 154.404 29.5284 155.59 29.5284C156.638 29.5284 157.552 29.7438 158.335 30.1747C159.123 30.6056 159.733 31.2486 160.164 32.1037C160.602 32.9522 160.82 34.0128 160.82 35.2855V45H157.847V35.6435C157.847 34.5232 157.559 33.6548 156.982 33.0384C156.406 32.4152 155.603 32.1037 154.576 32.1037C153.873 32.1037 153.244 32.2528 152.687 32.5511C152.137 32.8494 151.702 33.2869 151.384 33.8636C151.073 34.4337 150.917 35.1231 150.917 35.9318ZM168.099 45L163.604 29.7273H166.677L169.67 40.9432H169.819L172.822 29.7273H175.894L178.877 40.8935H179.026L181.999 29.7273H185.072L180.587 45H177.555L174.452 33.973H174.224L171.121 45H168.099ZM187.893 45V29.7273H190.767V32.1534H190.926C191.204 31.3314 191.695 30.6851 192.397 30.2145C193.107 29.7372 193.909 29.4986 194.804 29.4986C194.989 29.4986 195.208 29.5052 195.46 29.5185C195.718 29.5317 195.921 29.5483 196.066 29.5682V32.4119C195.947 32.3788 195.735 32.3423 195.43 32.3026C195.125 32.2562 194.82 32.233 194.515 32.233C193.813 32.233 193.186 32.3821 192.636 32.6804C192.092 32.9721 191.662 33.3797 191.343 33.9034C191.025 34.4205 190.866 35.0104 190.866 35.6733V45H187.893ZM198.639 45V29.7273H201.612V45H198.639ZM200.141 27.3707C199.624 27.3707 199.179 27.1984 198.808 26.8537C198.444 26.5024 198.261 26.0848 198.261 25.6009C198.261 25.1103 198.444 24.6927 198.808 24.348C199.179 23.9967 199.624 23.821 200.141 23.821C200.658 23.821 201.098 23.9967 201.463 24.348C201.834 24.6927 202.02 25.1103 202.02 25.6009C202.02 26.0848 201.834 26.5024 201.463 26.8537C201.098 27.1984 200.658 27.3707 200.141 27.3707ZM212.741 29.7273V32.1136H204.399V29.7273H212.741ZM206.636 26.0682H209.609V40.5156C209.609 41.0923 209.695 41.5265 209.868 41.8182C210.04 42.1032 210.262 42.2988 210.534 42.4048C210.812 42.5043 211.114 42.554 211.439 42.554C211.677 42.554 211.886 42.5374 212.065 42.5043C212.244 42.4711 212.383 42.4446 212.483 42.4247L213.02 44.8807C212.847 44.947 212.602 45.0133 212.284 45.0795C211.966 45.1525 211.568 45.1922 211.091 45.1989C210.308 45.2121 209.579 45.0729 208.903 44.7812C208.227 44.4896 207.68 44.0388 207.262 43.429C206.845 42.8191 206.636 42.0535 206.636 41.1321V26.0682ZM222.448 45.3082C220.943 45.3082 219.647 44.9867 218.56 44.3438C217.48 43.6941 216.645 42.7827 216.055 41.6094C215.471 40.4295 215.18 39.0473 215.18 37.4631C215.18 35.8987 215.471 34.5199 216.055 33.3267C216.645 32.1335 217.467 31.2022 218.521 30.5327C219.581 29.8632 220.821 29.5284 222.239 29.5284C223.101 29.5284 223.936 29.6709 224.745 29.956C225.554 30.241 226.28 30.6884 226.923 31.2983C227.566 31.9081 228.073 32.7003 228.444 33.6747C228.815 34.6425 229.001 35.8191 229.001 37.2045V38.2585H216.86V36.0312H226.087C226.087 35.2491 225.928 34.5563 225.61 33.9531C225.292 33.3433 224.844 32.8627 224.268 32.5114C223.698 32.16 223.028 31.9844 222.259 31.9844C221.424 31.9844 220.695 32.1899 220.072 32.6009C219.455 33.0052 218.978 33.5355 218.64 34.1918C218.308 34.8414 218.143 35.5473 218.143 36.3097V38.0497C218.143 39.0705 218.322 39.9389 218.68 40.6548C219.044 41.3707 219.551 41.9176 220.201 42.2955C220.851 42.6667 221.61 42.8523 222.478 42.8523C223.041 42.8523 223.555 42.7727 224.019 42.6136C224.483 42.4479 224.884 42.2027 225.222 41.8778C225.56 41.553 225.819 41.152 225.998 40.6747L228.812 41.1818C228.586 42.0104 228.182 42.7363 227.599 43.3594C227.022 43.9759 226.296 44.4564 225.421 44.8011C224.553 45.1392 223.562 45.3082 222.448 45.3082ZM232.299 45V29.7273H235.173V32.1534H235.332C235.61 31.3314 236.101 30.6851 236.804 30.2145C237.513 29.7372 238.315 29.4986 239.21 29.4986C239.395 29.4986 239.614 29.5052 239.866 29.5185C240.125 29.5317 240.327 29.5483 240.473 29.5682V32.4119C240.353 32.3788 240.141 32.3423 239.836 32.3026C239.531 32.2562 239.226 32.233 238.922 32.233C238.219 32.233 237.592 32.3821 237.042 32.6804C236.499 32.9721 236.068 33.3797 235.75 33.9034C235.431 34.4205 235.272 35.0104 235.272 35.6733V45H232.299Z" fill="black"/>
<defs>
<clipPath id="clip0_1110_1109">
<rect width="65" height="65" fill="white"/>
</clipPath>
</defs>
</svg>
