<svg width="63" height="65" viewBox="0 0 63 65" fill="none" xmlns="http://www.w3.org/2000/svg">
<g clip-path="url(#clip0_109_808)">
<path fill-rule="evenodd" clip-rule="evenodd" d="M8.76935 55H15.0743L17.1227 50H4.9486C6.04124 51.761 7.31483 53.437 8.76935 55ZM2.41413 45H19.171L21.2193 40H0.845728C1.2345 41.6987 1.7573 43.3713 2.41413 45ZM0.0927591 35H23.2677L25.316 30H0.0927566C-0.0309237 31.664 -0.0309228 33.336 0.0927591 35ZM0.84572 25H27.3644L29.4127 20H2.41411C1.75728 21.6287 1.23449 23.3014 0.84572 25ZM4.94858 15H31.461L33.5094 10H8.76931C7.3148 11.563 6.04122 13.239 4.94858 15ZM14.6995 5.00002H35.5577L37.3738 0.566829C29.6742 -0.933391 21.537 0.544339 14.6995 5.00002ZM54.2307 10H48.8651L46.8199 15H58.0514C56.9588 13.239 55.6852 11.563 54.2307 10ZM60.5859 20H44.7747L42.7295 25H62.1543C61.7655 23.3014 61.2427 21.6287 60.5859 20ZM62.9072 30H40.6843L38.639 35H62.9072C63.0309 33.336 63.0309 31.664 62.9072 30ZM62.1543 40H36.5938L34.5486 45H60.5859C61.2427 43.3713 61.7655 41.6987 62.1543 40ZM58.0514 50H32.5034L30.4582 55H54.2306C55.6852 53.437 56.9588 51.761 58.0514 50ZM48.3004 60H28.413L26.5331 64.5958C33.9614 65.813 41.7308 64.2811 48.3004 60Z" fill="#3366FF"/>
<path d="M43.6154 10H38.7693L20.3539 55H25.2L43.6154 10Z" fill="black"/>
</g>
<defs>
<clipPath id="clip0_109_808">
<rect width="63" height="65" fill="white"/>
</clipPath>
</defs>
</svg>
